<?xml version="1.0" standalone="no"?>
<!DOCTYPE svg PUBLIC "-//W3C//DTD SVG 20010904//EN"
 "http://www.w3.org/TR/2001/REC-SVG-20010904/DTD/svg10.dtd">
<svg version="1.0" xmlns="http://www.w3.org/2000/svg"
 width="500.000000pt" height="500.000000pt" viewBox="0 0 500.000000 500.000000"
 preserveAspectRatio="xMidYMid meet">

<g transform="translate(0.000000,500.000000) scale(0.100000,-0.100000)"
fill="#000000" stroke="none">
<path d="M2720 3170 l0 -90 130 0 130 0 0 90 0 90 -130 0 -130 0 0 -90z"/>
<path d="M587 2583 c-32 -335 -60 -620 -63 -635 l-6 -28 125 0 125 0 7 88 c3
48 7 94 8 102 3 20 145 28 152 8 3 -7 8 -53 13 -103 l7 -90 123 -3 123 -3 -5
23 c-3 13 -31 299 -63 636 l-57 612 -216 0 -215 0 -58 -607z m303 82 c11 -143
23 -277 26 -297 l6 -38 -60 0 -60 0 4 38 c2 20 13 162 24 314 11 153 20 283
21 290 4 50 21 -87 39 -307z"/>
<path d="M1436 2990 c-95 -37 -145 -112 -167 -249 -6 -45 -9 -171 -7 -334 3
-239 6 -267 25 -315 49 -122 124 -171 271 -180 157 -8 261 41 316 150 26 52
29 70 34 188 l5 130 -137 0 -136 0 0 -115 c0 -102 -2 -117 -20 -135 -27 -27
-55 -25 -80 7 -20 26 -21 34 -18 335 3 337 4 341 63 341 43 0 50 -17 55 -131
l5 -107 130 0 130 0 -1 117 c-1 106 -4 123 -28 172 -30 61 -75 100 -147 127
-69 26 -225 26 -293 -1z"/>
<path d="M2190 3001 c-83 -26 -151 -94 -178 -181 -14 -47 -17 -100 -17 -365 0
-284 2 -314 20 -363 26 -72 73 -124 137 -153 46 -21 68 -24 163 -24 128 0 177
17 243 83 57 57 72 111 72 259 l0 123 -130 0 -130 0 0 -115 c0 -102 -2 -117
-20 -135 -21 -21 -47 -25 -66 -12 -31 20 -34 55 -34 350 0 274 2 302 18 322
20 24 66 30 85 11 7 -7 13 -55 15 -121 l4 -110 129 0 129 0 0 113 c0 61 -5
130 -11 152 -15 55 -100 137 -164 158 -51 18 -217 22 -265 8z"/>
<path d="M3284 2999 c-100 -29 -183 -128 -203 -243 -14 -79 -14 -510 -1 -595
28 -167 132 -251 314 -251 147 0 249 55 297 162 24 52 24 57 24 378 0 372 -3
386 -83 472 -60 64 -125 88 -235 87 -45 0 -96 -5 -113 -10z m158 -207 c19 -22
24 -616 5 -652 -16 -31 -61 -39 -88 -14 -18 16 -19 35 -19 334 0 325 2 341 40
352 21 7 47 -2 62 -20z"/>
<path d="M4150 2984 c-17 -15 -39 -43 -50 -63 l-19 -36 -1 58 0 57 -130 0
-130 0 0 -540 0 -540 130 0 130 0 0 418 c0 443 2 456 48 473 18 7 28 3 48 -16
l24 -24 0 -426 0 -425 130 0 130 0 0 413 c0 226 -5 443 -10 482 -20 136 -82
195 -204 195 -55 0 -69 -4 -96 -26z"/>
<path d="M2720 2460 l0 -540 130 0 130 0 0 540 0 540 -130 0 -130 0 0 -540z"/>
</g>
</svg>
